<svg id="Ebene_1" data-name="Ebene 1" xmlns="http://www.w3.org/2000/svg" viewBox="0 0 159.98 84.3"><defs><style>.cls-1{fill:#d5d5d5;}.cls-2{fill:#2e5346;}</style></defs><title>markusNentwich_komma</title><rect class="cls-1" x="7.42" y="26.68" width="118.41" height="10.5"/><rect class="cls-1" x="7.42" y="65.41" width="144.53" height="10.5"/><path class="cls-2" d="M8.47,17.45l2.7-.72h2.7v1.65c2.77-1.4,3.49-1.65,5-1.65,2.41,0,4.57.68,5.11,1.65,2.77-1.4,3.49-1.65,4.64-1.65,3.17,0,5.44,1.9,5.44,4.5V34h-5.4V20.72c0-1.51-.69-2.09-2.49-2.09-1,0-2.19.54-2.19,1V34h-5.4V20.72c0-1.51-.69-2.09-2.49-2.09-1,0-2.19.54-2.19,1V34H8.47Z"/><path class="cls-2" d="M36.4,30.77c0-2.67,5.15-6,9.25-6V20.72a2.85,2.85,0,0,0-2.77-2.88c-1.73,0-3.56,1.73-4.07,3.82L37.56,19a10.5,10.5,0,0,1,6.15-2.23c3.82,0,7.27,1.51,7.27,3.56V34H45.65V32.75a12.11,12.11,0,0,1-5.36,1.61C37.84,34.36,36.4,33,36.4,30.77Zm9.25,1V25.65c-2.88.65-4.1,1.73-4.1,3.64s1.12,3,2.52,3A2.83,2.83,0,0,0,45.65,31.77Z"/><path class="cls-2" d="M54.15,18.17l2.7-1.44h2.7v1.94c2-1.48,2.73-1.94,3.89-1.94a7.1,7.1,0,0,1,4.24,1.8l-3.34,6.66c-.87-3.35-2.49-5-4.79-5V34h-5.4Z"/><path class="cls-2" d="M69.77,8.84h5.4V25.65l7.38-12H84L80.14,20l5.65,14H81.11l-3.74-9.43-2.2,3.32V34h-5.4Z"/><path class="cls-2" d="M88.13,29.51V17.45l2.7-.72h2.7V30c0,1.22.36,2.09,2.48,2.09.51,0,2.2-.33,2.2-1V16.73h5.4V34h-5.4V32.35C95.87,33.54,94.93,34,93.46,34,90.36,34,88.13,32.06,88.13,29.51Z"/><path class="cls-2" d="M105.52,31.49l1.19-1a3.86,3.86,0,0,0,3.56,2.59c2.2,0,4.25-1.79,4.25-3.45,0-2-1-3.49-3.85-4.43-3.14-1-4.14-2.12-4.14-4.5,0-2.23,2.55-4,5.76-4a6.36,6.36,0,0,1,5,2.26l-1.15.62a4.19,4.19,0,0,0-3.53-2c-.76,0-1.22.87-1.22,1.69,0,1,.9,1.95,3.49,2.85,2.27.79,4,2.84,4,4.75,0,4.35-3.53,7.48-8.39,7.48C108.51,34.36,105.91,32.85,105.52,31.49Z"/><path class="cls-2" d="M8.47,56.21l2.7-.72h2.7v1.66c2.34-1.19,3.27-1.66,4.75-1.66,3.1,0,5.33,1.95,5.33,4.5V72.77h-5.4V59.49c0-1.22-.36-2.09-2.49-2.09-.5,0-2.19.33-2.19,1V72.77H8.47Z"/><path class="cls-2" d="M26.68,64.75c0-5.08,2.88-9.26,7-9.26,3.16,0,5.79,2.81,5.79,6.92H32.12v3.92c0,3.74,1.22,5.65,3.17,5.65,1,0,1.72-.58,3.27-2.84l1.26.64c-1.15,2.24-3,3.35-6.15,3.35C29.64,73.13,26.68,69.89,26.68,64.75Zm8.43-3.21c0-3.85-.22-5.15-1.44-5.15s-1.55,1.3-1.55,5.15Z"/><path class="cls-2" d="M42.23,56.21l2.7-.72h2.7v1.66C50,56,50.91,55.49,52.38,55.49c3.1,0,5.33,1.95,5.33,4.5V72.77h-5.4V59.49c0-1.22-.36-2.09-2.48-2.09-.5,0-2.2.33-2.2,1V72.77h-5.4Z"/><path class="cls-2" d="M62.32,69.21V58.91H59.8V57.65h2.52V50.81l5.4-.72v7.56h2.52v1.26H67.72v9.87c0,1.58,0,2.88,1.69,2.88,1.48,0,1.77-1,2.27-3.1l1.26,2.7c-1.26,1.19-3.38,1.51-5.26,1.51C63.69,72.77,62.32,71.26,62.32,69.21Z"/><path class="cls-2" d="M75.28,55.49h5.54l3.46,14.83,1-3.85-2.59-11H88l2.88,14.83L95.4,55.49h1.3L92.92,72.77H86.73l-.87-3.67-.93,3.67H79.35Z"/><path class="cls-2" d="M97.2,56.21l5.4-.72V72.77H97.2Zm.29-5.76c0-1.58.79-2.87,2.38-2.87s2.48,1.29,2.48,2.87-.9,2.88-2.48,2.88S97.49,52,97.49,50.45Z"/><path class="cls-2" d="M105.27,64.46c0-4.93,3.7-9,8.24-9a8.21,8.21,0,0,1,6.26,3l-3.6,1.94c-.65-2.7-1.19-3.64-2.19-3.64-1.88,0-3.31,3.06-3.31,7.24,0,3.92,1.9,7.88,3.77,7.88.94,0,2.09-1,3.32-2.84l2,.9-1,1c-1.73,1.8-2.56,2.19-4.57,2.19C108.51,73.13,105.27,70,105.27,64.46Z"/><path class="cls-2" d="M121.86,48.29l5.4-1.07v9.93c2.34-1.19,3.28-1.66,4.75-1.66,3.1,0,5.33,1.95,5.33,4.5V72.77h-5.4V59.49c0-1.22-.36-2.09-2.48-2.09-.51,0-2.2.33-2.2,1V72.77h-5.4Z"/><path class="cls-2" d="M140.18,75.51c.51-.51,2.45-1.87,2.45-2.38,0-.21-.25-.36-.72-.36-1.4,0-2.23-1.15-2.23-2.88s.94-2.88,2.38-2.88a2.54,2.54,0,0,1,2.48,2.77c0,2.06-1.66,5.91-3.1,7.06Z"/></svg>