<?xml version="1.0" encoding="utf-8"?>
<!-- Generator: Adobe Illustrator 23.0.6, SVG Export Plug-In . SVG Version: 6.00 Build 0)  -->
<svg version="1.1" id="Ebene_1" xmlns="http://www.w3.org/2000/svg" xmlns:xlink="http://www.w3.org/1999/xlink" x="0px" y="0px"
	 viewBox="0 0 153.8 84.3" style="enable-background:new 0 0 153.8 84.3;" xml:space="preserve">
<style type="text/css">
	.st0{fill:#D5D5D5;}
	.st1{fill:#2E5346;}
</style>
<title>markusNentwich_komma</title>
<rect x="7.4" y="26.7" class="st0" width="118.4" height="10.5"/>
<rect x="7.4" y="65.4" class="st0" width="138.1" height="10.5"/>
<path class="st1" d="M8.5,17.5l2.7-0.7h2.7v1.6c2.8-1.4,3.5-1.6,5-1.6c2.4,0,4.6,0.7,5.1,1.6c2.8-1.4,3.5-1.6,4.6-1.6
	c3.2,0,5.4,1.9,5.4,4.5V34h-5.4V20.7c0-1.5-0.7-2.1-2.5-2.1c-1,0-2.2,0.5-2.2,1V34h-5.4V20.7c0-1.5-0.7-2.1-2.5-2.1
	c-1,0-2.2,0.5-2.2,1V34H8.5V17.5z"/>
<path class="st1" d="M36.4,30.8c0-2.7,5.2-6,9.2-6v-4.1c0-1.6-1.2-2.8-2.8-2.9c-1.7,0-3.6,1.7-4.1,3.8L37.6,19
	c1.8-1.4,3.9-2.2,6.2-2.2c3.8,0,7.3,1.5,7.3,3.6V34h-5.3v-1.2c-1.6,0.9-3.5,1.5-5.4,1.6C37.8,34.4,36.4,33,36.4,30.8z M45.7,31.8
	v-6.1c-2.9,0.6-4.1,1.7-4.1,3.6s1.1,3,2.5,3C44.6,32.3,45.2,32.1,45.7,31.8z"/>
<path class="st1" d="M54.2,18.2l2.7-1.4h2.7v1.9c2-1.5,2.7-1.9,3.9-1.9c1.6,0.1,3.1,0.7,4.2,1.8l-3.3,6.7c-0.9-3.4-2.5-5-4.8-5V34
	h-5.4V18.2z"/>
<path class="st1" d="M69.8,8.8h5.4v16.8l7.4-12H84L80.1,20l5.7,14h-4.7l-3.7-9.4l-2.2,3.3V34h-5.4L69.8,8.8z"/>
<path class="st1" d="M88.1,29.5V17.5l2.7-0.7h2.7V30c0,1.2,0.4,2.1,2.5,2.1c0.5,0,2.2-0.3,2.2-1V16.7h5.4V34h-5.4v-1.7
	c-2.3,1.2-3.3,1.7-4.7,1.7C90.4,34,88.1,32.1,88.1,29.5z"/>
<path class="st1" d="M105.5,31.5l1.2-1c0.5,1.5,1.9,2.6,3.6,2.6c2.2,0,4.2-1.8,4.2-3.5c0-2-1-3.5-3.8-4.4c-3.1-1-4.1-2.1-4.1-4.5
	c0-2.2,2.6-4,5.8-4c1.9,0,3.8,0.8,5,2.3l-1.2,0.6c-0.8-1.2-2.1-2-3.5-2c-0.8,0-1.2,0.9-1.2,1.7c0,1,0.9,2,3.5,2.9
	c2.3,0.8,4,2.8,4,4.8c0,4.4-3.5,7.5-8.4,7.5C108.5,34.4,105.9,32.8,105.5,31.5z"/>
<path class="st1" d="M8.5,56.2l2.7-0.7h2.7v1.7c2.3-1.2,3.3-1.7,4.7-1.7c3.1,0,5.3,2,5.3,4.5v12.8h-5.4V59.5c0-1.2-0.4-2.1-2.5-2.1
	c-0.5,0-2.2,0.3-2.2,1v14.4H8.5V56.2z"/>
<path class="st1" d="M26.7,64.8c0-5.1,2.9-9.3,7-9.3c3.2,0,5.8,2.8,5.8,6.9h-7.4v3.9c0,3.7,1.2,5.7,3.2,5.7c1,0,1.7-0.6,3.3-2.8
	l1.3,0.6c-1.2,2.2-3,3.3-6.2,3.3C29.6,73.1,26.7,69.9,26.7,64.8z M35.1,61.5c0-3.8-0.2-5.2-1.4-5.2s-1.5,1.3-1.5,5.2H35.1z"/>
<path class="st1" d="M42.2,56.2l2.7-0.7h2.7v1.7c2.4-1.1,3.3-1.7,4.8-1.7c3.1,0,5.3,2,5.3,4.5v12.8h-5.4V59.5c0-1.2-0.4-2.1-2.5-2.1
	c-0.5,0-2.2,0.3-2.2,1v14.4h-5.4L42.2,56.2z"/>
<path class="st1" d="M62.3,69.2V58.9h-2.5v-1.3h2.5v-6.8l5.4-0.7v7.6h2.5v1.3h-2.5v9.9c0,1.6,0,2.9,1.7,2.9c1.5,0,1.8-1,2.3-3.1
	l1.3,2.7c-1.3,1.2-3.4,1.5-5.3,1.5C63.7,72.8,62.3,71.3,62.3,69.2z"/>
<path class="st1" d="M75.3,55.5h5.5l3.5,14.8l1-3.8l-2.6-11H88l2.9,14.8l4.5-14.8h1.3l-3.8,17.3h-6.2l-0.9-3.7l-0.9,3.7h-5.6
	L75.3,55.5z"/>
<path class="st1" d="M97.2,56.2l5.4-0.7v17.3h-5.4V56.2z M97.5,50.4c0-1.6,0.8-2.9,2.4-2.9s2.5,1.3,2.5,2.9s-0.9,2.9-2.5,2.9
	S97.5,52,97.5,50.4z"/>
<path class="st1" d="M105.3,64.5c0-4.9,3.7-9,8.2-9c2.4,0,4.7,1.1,6.3,3l-3.6,1.9c-0.7-2.7-1.2-3.6-2.2-3.6c-1.9,0-3.3,3.1-3.3,7.2
	c0,3.9,1.9,7.9,3.8,7.9c0.9,0,2.1-1,3.3-2.8l2,0.9l-1,1c-1.7,1.8-2.6,2.2-4.6,2.2C108.5,73.1,105.3,70,105.3,64.5z"/>
<path class="st1" d="M121.9,48.3l5.4-1.1v9.9c2.3-1.2,3.3-1.7,4.8-1.7c3.1,0,5.3,2,5.3,4.5v12.8h-5.4V59.5c0-1.2-0.4-2.1-2.5-2.1
	c-0.5,0-2.2,0.3-2.2,1v14.4h-5.4L121.9,48.3z"/>
</svg>
