<svg id="Ebene_1" data-name="Ebene 1" xmlns="http://www.w3.org/2000/svg" viewBox="0 0 217.73 99.5"><defs><style>.cls-1{fill:none;}.cls-2{fill:#2e5346;}.cls-3{fill:#9d9d9c;}</style></defs><title>nentwichVerlag_logos</title><path class="cls-1" d="M136.69,79.65c.46-1.17.89-2.33,1.27-3.44a11.68,11.68,0,0,0,.58-2.17.83.83,0,0,0-.28-.1,2.24,2.24,0,0,1-.3.47,17.35,17.35,0,0,1-1.18,1.45c-1.68,1.78-4,3.58-5.28,3.58a1.17,1.17,0,0,1-1.17-1.31c0-3,4.58-7.08,7.9-7.08,1.51,0,1.58,1,1.58,1.16a2.19,2.19,0,0,1-.13.71.3.3,0,0,0,0,.11c.13,0,.49-.32.49-.92s-.57-1.45-2.15-1.45c-2.62,0-6.22,2.47-7.7,5.29-1.67,1.8-3,2.61-4.07,2.61-.82,0-1.69-.55-1.69-2.09a4.47,4.47,0,0,1,.57-2,1.08,1.08,0,0,0,.13-.29.33.33,0,0,0-.28-.26,5.1,5.1,0,0,0-.9,1c-.24.31-.51.67-.82,1-1.22,1.49-3.62,3.7-5.22,3.7a1,1,0,0,1-1-1.1c0-3,4.46-7.54,8.32-7.54a1.34,1.34,0,0,1,1.51,1.31,1.92,1.92,0,0,1-.07.5,1.05,1.05,0,0,0,0,.24,1.1,1.1,0,0,0,.45-.92c0-.73-.57-1.51-2.18-1.51-2.93,0-6.33,2.74-7.8,5.29-1,1.07-3.4,3.45-5.59,3.45a1.84,1.84,0,0,1-2-2,4.6,4.6,0,0,1,.19-1.38l-.69-.09c-1.52,1.65-3.67,3.56-5.52,3.56a1.12,1.12,0,0,1-1.24-1.2c0-1.2.94-2.4,1.77-3.47a5,5,0,0,0,1.3-2.28c0-.14-.06-.29-.47-.48-2.21-1.21-2.21-1.54-2.21-1.67,0-.34.31-.73.82-1.34a4.07,4.07,0,0,0,.7-1,.71.71,0,0,0-.5-.46c-.47,0-1,1.32-1.29,2.11-.13.33-.25.62-.35.84a36.48,36.48,0,0,1-3.69,5.11c-.15.18-3.39,4.1-7.7,4.1a2.28,2.28,0,0,1-2.51-2.29,2.32,2.32,0,0,1,0-.45l-.79-.27a5.41,5.41,0,0,1-3.57,1.46A1.76,1.76,0,0,1,82,77l0-.16.12-.12c2.17-2.09,3.47-4.48,3.47-6.38a1.76,1.76,0,0,0-.82-1.58.46.46,0,0,1,0,.14,4.73,4.73,0,0,1,.14,1.12C84.88,72.5,83,74.83,82,76l-1.07,1.06a15.49,15.49,0,0,0-1.16,1.17c-.54.58-.89,1-1.44,1A1.27,1.27,0,0,1,77,78.28a34.39,34.39,0,0,1-1.16-4.75l-.79-.35a13.4,13.4,0,0,1-6.92,1.87H65.85l-7.06,0c-3.48,0-9.52,0-18,0-10.15,0-20.13,0-20.3,0a12,12,0,0,1-12-12V20.35a12,12,0,0,1,12-12H197.84a12,12,0,0,1,12,12V63.07a12,12,0,0,1-12,12h-49l-.87,0a9.75,9.75,0,0,0-4.92,1c-.69.4-1.4.91-2.15,1.45A31.63,31.63,0,0,1,137.09,80l-.67.35Z"/><path class="cls-2" d="M20.69,32.12l3.76-1h3.77v2.31c3.26-1.65,4.57-2.31,6.62-2.31,4.32,0,7.43,2.71,7.43,6.28V55.21H34.74V36.69c0-1.71-.5-2.92-3.46-2.92-.7,0-3.06.46-3.06,1.41v20H20.69Z"/><path class="cls-2" d="M46.09,44c0-7.08,4-12.91,9.74-12.91,4.42,0,8.08,3.92,8.08,9.64H53.67v5.47c0,5.23,1.71,7.89,4.42,7.89,1.45,0,2.41-.81,4.57-4l1.75.9c-1.6,3.12-4.11,4.67-8.58,4.67C50.21,55.71,46.09,51.19,46.09,44Zm11.75-4.47c0-5.37-.3-7.18-2-7.18s-2.16,1.81-2.16,7.18Z"/><path class="cls-2" d="M67.78,32.12l3.76-1h3.77v2.31c3.26-1.65,4.57-2.31,6.62-2.31,4.32,0,7.43,2.71,7.43,6.28V55.21H81.83V36.69c0-1.71-.5-2.92-3.46-2.92-.7,0-3.06.46-3.06,1.41v20H67.78Z"/><path class="cls-2" d="M95.79,50.24V35.88H92.28V34.13h3.51V24.59l7.53-1V34.13h3.52v1.75h-3.52V49.64c0,2.21.05,4,2.36,4,2.06,0,2.46-1.4,3.16-4.31l1.76,3.76c-1.76,1.66-4.72,2.11-7.33,2.11C97.7,55.21,95.79,53.1,95.79,50.24Z"/><path class="cls-2" d="M111.45,31.11h7.74L124,51.8l1.36-5.37-3.61-15.32h7.43l4,20.69,6.33-20.69h1.8l-5.27,24.1h-8.63l-1.21-5.12-1.3,5.12h-7.78Z"/><path class="cls-2" d="M142,32.12l7.53-1v24.1H142Zm.4-8c0-2.21,1.1-4,3.31-4s3.47,1.81,3.47,4-1.26,4-3.47,4S142.43,26.29,142.43,24.09Z"/><path class="cls-2" d="M177.27,21.07l7.53-1.5V33.42c3.26-1.65,4.57-2.31,6.63-2.31,4.32,0,7.43,2.71,7.43,6.28V55.21h-7.53V36.69c0-1.71-.5-2.92-3.47-2.92-.7,0-3.06.46-3.06,1.41v20h-7.53Z"/><path class="cls-2" d="M173.86,39.23c-2.53-4.17-3.8-3.1-9.28-3.08h-1c-4.41,0-6.52,2.79-6.51,7.2s.67,7.44,5.07,7.42l11.39-.07v4.5H163c-6.48,0-10.54-5.35-10.56-11.84s4.59-11.77,11.08-11.79h1c5.66-.33,6.68.27,9.16-3.55Z"/><path class="cls-2" d="M209.55,63.07a11.74,11.74,0,0,1-11.71,11.72h-49c-2.3.1-4,0-5.93,1.08-1.75,1-3.6,2.67-6,3.9.49-1.27.91-2.43,1.27-3.45a14.76,14.76,0,0,0,.6-2.26c0-.17-.32-.38-.57-.38s-.67.91-1.69,2c-1.8,1.91-3.94,3.49-5.07,3.49-.46,0-.88-.28-.88-1,0-2.78,4.33-6.8,7.61-6.8,1.05,0,1.3.53,1.3.88a3.56,3.56,0,0,1-.18.81.33.33,0,0,0,.36.32c.21,0,.7-.46.7-1.23s-.56-1.73-2.43-1.73c-2.89,0-6.51,2.69-7.95,5.44-1.65,1.76-2.86,2.45-3.82,2.45-.77,0-1.41-.53-1.41-1.8a6.4,6.4,0,0,1,.71-2.29.61.61,0,0,0-.57-.56c-.38,0-1,1-1.93,2.15-1.17,1.41-3.53,3.59-5,3.59-.49,0-.74-.31-.74-.81,0-2.78,4.3-7.26,8-7.26,1,0,1.23.71,1.23,1s-.11.49-.11.74a.28.28,0,0,0,.28.28c.25,0,.74-.5.74-1.2,0-.88-.7-1.8-2.46-1.8-2.89,0-6.43,2.65-8,5.43-.89,1-3.26,3.31-5.35,3.31a1.56,1.56,0,0,1-1.76-1.73,3.3,3.3,0,0,1,.31-1.62c4.44-4.08,11.14-11,11.14-13.6a1.42,1.42,0,0,0-1.52-1.48c-3,0-9.62,8.89-10.83,14.93-1.8,2-3.79,3.57-5.41,3.57a.84.84,0,0,1-1-.91c0-2,3.06-4.23,3.06-5.75,0-.35-.24-.56-.63-.74a7.59,7.59,0,0,1-2-1.41c0-.52,1.52-1.79,1.52-2.32a.94.94,0,0,0-.78-.74c-.88,0-1.48,2.25-1.9,3.1a35.08,35.08,0,0,1-3.64,5.05l0,0s-3.25,4-7.47,4a2,2,0,0,1-2.22-2,2,2,0,0,1,.07-.64c2.92-.74,7.64-2.68,7.64-4.79a1.62,1.62,0,0,0-1.83-1.52c-2.46,0-6.29,2.93-7,5.91a5.18,5.18,0,0,1-3.51,1.49c-.88,0-1.45-.38-1.59-.91,1.94-1.87,3.56-4.37,3.56-6.59a1.87,1.87,0,0,0-1.12-1.87.24.24,0,0,0-.25.25,7,7,0,0,1,.17,1.3c0,2-1.3,4.09-2.85,5.74l-1.06,1.06c-1.37,1.23-1.73,2-2.4,2a1,1,0,0,1-1-.73,35.25,35.25,0,0,1-1.16-4.85c1.45-1,2.34-2.2,2.4-3.17,0-.35,0-1.52-1.81-1.72a1.38,1.38,0,0,0-1.28.49c-.59.73-.61,2.27-.38,3.93a13,13,0,0,1-7.13,1.9c-1.82,0-9.08,0-9.15,0-9.92-.08-38,0-38.27,0h0A11.73,11.73,0,0,1,8.8,63.07V20.35A11.73,11.73,0,0,1,20.51,8.64H197.84a11.72,11.72,0,0,1,11.71,11.71ZM197.84,7.5H20.51A12.7,12.7,0,0,0,7.83,20.19V62.91A12.68,12.68,0,0,0,20.49,75.58h0c.29,0,28.35-.06,38.27,0,.08,0,7.32,0,9.13,0a14.6,14.6,0,0,0,7.32-1.83,36.71,36.71,0,0,0,1,4.37c.27.88.88,1.72,1.8,1.72s1.59-.81,3.11-2.08a3.52,3.52,0,0,0,2.46.85,6,6,0,0,0,3.58-1.32,3.14,3.14,0,0,0,3.44,3c4,0,8-4.39,8-4.47h0c1.3-1.49,2.78-3.39,3.31-4.13.21-.28.32-.38.46-.38a4,4,0,0,1,1.38.81c.24.17.42.31.42.49,0,1.23-2.86,3.35-2.86,5.53a1.76,1.76,0,0,0,1.91,1.76c1.6,0,3.65-1.43,5.44-3.2,0,.17,0,.33,0,.49A2.55,2.55,0,0,0,111.41,80c1.58,0,3.47-1.38,4.8-2.56a4.05,4.05,0,0,0-.15,1,1.71,1.71,0,0,0,1.84,1.83c1.79,0,4.4-2.4,5.77-4A2.53,2.53,0,0,0,126,79a5.61,5.61,0,0,0,3.4-1.73,3.13,3.13,0,0,0-.06.6,1.86,1.86,0,0,0,1.91,2c1.79,0,4.05-1.83,5.88-3.77-.42,1.2-.95,2.68-1.62,4.2-6.52,3.27-14.2,5.74-14.2,10.6a3.2,3.2,0,0,0,3.49,3.24c5,0,9.09-7.22,11.59-13.25a72,72,0,0,0,7.07-4.45c1.66-1,3.21-.82,5.36-.88h49a12.72,12.72,0,0,0,12.69-12.7V20.19A12.7,12.7,0,0,0,197.84,7.5Zm-73,85.7a2.16,2.16,0,0,1-2.29-2.26c0-3.88,6.31-6.24,12.48-9.3C132.52,87.14,128.78,93.2,124.8,93.2ZM76.2,69.39a.37.37,0,0,1,.31-.14h.09c1,.12,1,.55,1,.69A3.72,3.72,0,0,1,76,72.07,4.29,4.29,0,0,1,76.2,69.39Zm34.12,4.78c1.87-5.67,7.4-12.76,9.48-12.76a.42.42,0,0,1,.46.43C120.26,64.27,114.16,70.68,110.32,74.17Zm-21.5,1.44c1-2.18,3.7-4.29,5.64-4.29.53,0,.64.31.64.42C95.1,73.22,91.5,74.91,88.82,75.61Z"/><path class="cls-3" d="M179.88,42.1l-13.34.07a10.49,10.49,0,0,1-5.86-1.43.61.61,0,0,0-1,.5v5.68a.64.64,0,0,0,.14.39.61.61,0,0,0,.82.11,9.49,9.49,0,0,1,5.75-1.48l3.4,0v6.95l2.07-1.07V45.91h1.59v9.31h6.36a6.68,6.68,0,0,0,6.48-6.68A6.45,6.45,0,0,0,179.88,42.1Zm0,9.14-4.32,0V45.89l4.31,0a2.67,2.67,0,0,1,2.69,2.67A2.7,2.7,0,0,1,179.9,51.24Z"/></svg>