<?xml version="1.0" encoding="utf-8"?>
<!-- Generator: Adobe Illustrator 23.0.6, SVG Export Plug-In . SVG Version: 6.00 Build 0)  -->
<svg version="1.1" id="Ebene_1" xmlns="http://www.w3.org/2000/svg" xmlns:xlink="http://www.w3.org/1999/xlink" x="0px" y="0px"
	 viewBox="0 0 30 30" style="enable-background:new 0 0 30 30;" xml:space="preserve">
<style type="text/css">
	.st0{fill:#CBD8D3;enable-background:new    ;}
	.st1{fill:#2E5346;}
</style>
<title>nentwichVerlag_logos</title>
<g>
	<rect x="1.4" y="14.7" class="st0" width="27.1" height="6.8"/>
	<path class="st1" d="M2.9,10.9l1.4-0.4h1.4v0.9c1.4-0.7,1.8-0.9,2.6-0.9c1.2,0,2.4,0.3,2.6,0.9c1.4-0.7,1.8-0.9,2.4-0.9
		c1.6,0,2.8,1,2.8,2.3v6.6h-2.8v-6.9c0-0.8-0.4-1.1-1.3-1.1c-0.5,0-1.1,0.3-1.1,0.5v7.4H8.1v-6.9c0-0.8-0.3-1.1-1.3-1.1
		c-0.5,0-1.1,0.3-1.1,0.5v7.4H2.9V10.9z"/>
	<path class="st1" d="M17.9,10.9l1.4-0.4h1.4v0.9c0.7-0.5,1.6-0.8,2.5-0.9c1.6,0,2.8,1,2.8,2.3v6.6h-2.8v-6.9c0-0.6-0.2-1.1-1.3-1.1
		c-0.3,0-1.1,0.2-1.1,0.5v7.4H18v-8.4H17.9z"/>
</g>
</svg>
