<?xml version="1.0" standalone="no"?>
<!DOCTYPE svg PUBLIC "-//W3C//DTD SVG 20010904//EN"
 "http://www.w3.org/TR/2001/REC-SVG-20010904/DTD/svg10.dtd">
<svg version="1.0" xmlns="http://www.w3.org/2000/svg"
 width="700.000000pt" height="700.000000pt" viewBox="0 0 700.000000 700.000000"
 preserveAspectRatio="xMidYMid meet">
<metadata>
Created by potrace 1.11, written by Peter Selinger 2001-2013
</metadata>
<g transform="translate(0.000000,700.000000) scale(0.100000,-0.100000)"
fill="#000000" stroke="none">
<path d="M838 4502 l-158 -46 0 -968 0 -968 325 0 325 0 0 875 0 875 46 30
c81 51 132 63 257 58 159 -6 217 -40 246 -143 8 -28 11 -296 11 -877 l0 -838
325 0 325 0 0 868 0 869 23 21 c45 42 137 76 222 80 156 8 256 -34 298 -126
l22 -47 0 -845 0 -845 325 0 325 0 3 430 c1 237 -1 610 -6 830 l-7 400 -38 79
c-97 203 -318 328 -587 330 -131 1 -190 -17 -412 -126 -88 -43 -161 -78 -164
-78 -2 0 -10 14 -19 30 -34 66 -180 132 -355 161 -47 8 -148 14 -225 13 -130
0 -146 -2 -231 -31 -50 -18 -155 -64 -233 -102 -79 -39 -144 -71 -147 -71 -2
0 -4 47 -4 105 l0 105 -167 -1 -168 -1 -157 -46z"/>
<path d="M4350 4505 l-145 -42 -3 -982 -2 -981 325 0 325 0 0 870 0 871 26 24
c68 63 255 94 370 60 76 -22 121 -56 148 -114 21 -46 21 -50 21 -891 l0 -845
325 0 325 0 3 430 c1 237 -1 610 -6 830 l-7 400 -38 79 c-87 184 -280 305
-527 331 -154 16 -462 -75 -627 -185 l-33 -22 0 106 0 106 -167 -1 c-167 -1
-169 -1 -313 -44z"/>
</g>
</svg>
