<svg id="Ebene_1" data-name="Ebene 1" xmlns="http://www.w3.org/2000/svg" viewBox="0 0 217.73 99.5"><defs><style>.cls-1{fill:#ededed;}.cls-2{fill:#2e5346;}.cls-3{fill:#9d9d9c;}</style></defs><title>nentwichVerlag_logos</title><path class="cls-1" d="M136.69,80c.46-1.18.89-2.34,1.27-3.45a11.51,11.51,0,0,0,.58-2.16.66.66,0,0,0-.28-.1,2.24,2.24,0,0,1-.3.47,17.47,17.47,0,0,1-1.18,1.44c-1.68,1.79-4,3.58-5.28,3.58a1.16,1.16,0,0,1-1.17-1.3c0-3,4.58-7.09,7.9-7.09,1.51,0,1.58,1,1.58,1.17a2.12,2.12,0,0,1-.13.7.41.41,0,0,0,0,.12c.13,0,.49-.32.49-.93S139.56,71,138,71c-2.62,0-6.22,2.47-7.7,5.29-1.67,1.79-3,2.6-4.07,2.6-.82,0-1.69-.54-1.69-2.08a4.43,4.43,0,0,1,.57-2,1.24,1.24,0,0,0,.13-.29.33.33,0,0,0-.28-.26,5,5,0,0,0-.9,1c-.24.32-.51.67-.82,1C122,77.75,119.6,80,118,80a1,1,0,0,1-1-1.09c0-3,4.46-7.54,8.32-7.54a1.34,1.34,0,0,1,1.51,1.3,2,2,0,0,1-.07.51,1,1,0,0,0,0,.23,1.05,1.05,0,0,0,.45-.91c0-.73-.57-1.52-2.18-1.52-2.93,0-6.33,2.75-7.8,5.29-1,1.07-3.4,3.45-5.59,3.45a1.83,1.83,0,0,1-2-2,4.55,4.55,0,0,1,.19-1.38L109,76.2c-1.52,1.65-3.67,3.55-5.52,3.55a1.12,1.12,0,0,1-1.24-1.2c0-1.19.94-2.4,1.77-3.46a5,5,0,0,0,1.3-2.28c0-.14-.06-.3-.47-.48-2.21-1.22-2.21-1.55-2.21-1.67,0-.34.31-.74.82-1.34a3.9,3.9,0,0,0,.7-1,.72.72,0,0,0-.5-.45c-.47,0-1,1.32-1.29,2.1-.13.33-.25.63-.35.84a35.9,35.9,0,0,1-3.69,5.11c-.15.18-3.39,4.1-7.7,4.1a2.28,2.28,0,0,1-2.51-2.29,2.37,2.37,0,0,1,0-.45L87.39,77a5.4,5.4,0,0,1-3.57,1.45A1.76,1.76,0,0,1,82,77.36l0-.16.12-.12c2.17-2.1,3.47-4.48,3.47-6.38a1.76,1.76,0,0,0-.82-1.58.32.32,0,0,1,0,.14,4.73,4.73,0,0,1,.14,1.12c0,2.44-1.84,4.77-2.93,5.94l-1.07,1.06a15.49,15.49,0,0,0-1.16,1.17c-.54.57-.89,1-1.44,1A1.27,1.27,0,0,1,77,78.59a34.24,34.24,0,0,1-1.16-4.74l-.79-.35a13.49,13.49,0,0,1-6.92,1.86H65.85c-2.81,0-7,0-7.06,0-3.48,0-9.52,0-18,0-10.15,0-20.13,0-20.3,0a12,12,0,0,1-12-12V20.66a12,12,0,0,1,12-12H197.84a12,12,0,0,1,12,12V63.38a12,12,0,0,1-12,12h-49l-.87,0a9.65,9.65,0,0,0-4.92,1c-.69.4-1.4.91-2.15,1.44a31.64,31.64,0,0,1-3.85,2.46l-.67.34Z"/><path class="cls-2" d="M20.69,32.43l3.76-1h3.77v2.31c3.26-1.66,4.57-2.31,6.62-2.31,4.32,0,7.43,2.71,7.43,6.28V55.53H34.74V37c0-1.7-.5-2.91-3.46-2.91-.7,0-3.06.45-3.06,1.41v20H20.69Z"/><path class="cls-2" d="M46.09,44.33c0-7.08,4-12.9,9.74-12.9,4.42,0,8.08,3.92,8.08,9.64H53.67v5.47c0,5.22,1.71,7.88,4.42,7.88,1.45,0,2.41-.8,4.57-4l1.75.9C62.81,54.47,60.3,56,55.83,56,50.21,56,46.09,51.51,46.09,44.33Zm11.75-4.47c0-5.37-.3-7.17-2-7.17s-2.16,1.8-2.16,7.17Z"/><path class="cls-2" d="M67.78,32.43l3.76-1h3.77v2.31c3.26-1.66,4.57-2.31,6.62-2.31,4.32,0,7.43,2.71,7.43,6.28V55.53H81.83V37c0-1.7-.5-2.91-3.46-2.91-.7,0-3.06.45-3.06,1.41v20H67.78Z"/><path class="cls-2" d="M95.79,50.56V36.2H92.28V34.44h3.51V24.9l7.53-1V34.44h3.52V36.2h-3.52V50c0,2.21.05,4,2.36,4,2.06,0,2.46-1.4,3.16-4.32l1.76,3.77c-1.76,1.66-4.72,2.11-7.33,2.11C97.7,55.53,95.79,53.42,95.79,50.56Z"/><path class="cls-2" d="M111.45,31.43h7.74L124,52.11l1.36-5.37-3.61-15.31h7.43l4,20.68,6.33-20.68h1.8l-5.27,24.1h-8.63l-1.21-5.12-1.3,5.12h-7.78Z"/><path class="cls-2" d="M142,32.43l7.53-1v24.1H142Zm.4-8c0-2.21,1.1-4,3.31-4s3.47,1.8,3.47,4-1.26,4-3.47,4S142.43,26.61,142.43,24.4Z"/><path class="cls-2" d="M177.27,21.39l7.53-1.51V33.74c3.26-1.66,4.57-2.31,6.63-2.31,4.32,0,7.43,2.71,7.43,6.28V55.53h-7.53V37c0-1.7-.5-2.91-3.47-2.91-.7,0-3.06.45-3.06,1.41v20h-7.53Z"/><path class="cls-2" d="M173.86,39.55c-2.53-4.18-3.8-3.1-9.28-3.08h-1c-4.41,0-6.52,2.79-6.51,7.2s.67,7.43,5.07,7.42L173.51,51v4.5H163c-6.48,0-10.54-5.36-10.56-11.84s4.59-11.78,11.08-11.8h1c5.66-.33,6.68.27,9.16-3.54Z"/><path class="cls-2" d="M209.55,63.38a11.74,11.74,0,0,1-11.71,11.73l-48.23,0h-.73c-2.3.1-4,0-5.93,1.08-1.75,1-3.6,2.66-6,3.9.49-1.27.91-2.43,1.27-3.45a14.76,14.76,0,0,0,.6-2.26c0-.18-.32-.39-.57-.39s-.67.92-1.69,2c-1.8,1.9-3.94,3.49-5.07,3.49-.46,0-.88-.28-.88-1,0-2.79,4.33-6.8,7.61-6.8,1.05,0,1.3.53,1.3.88a3.56,3.56,0,0,1-.18.81.33.33,0,0,0,.36.32c.21,0,.7-.46.7-1.24s-.56-1.72-2.43-1.72c-2.89,0-6.51,2.69-7.95,5.43-1.65,1.77-2.86,2.46-3.82,2.46-.77,0-1.41-.53-1.41-1.8a6.32,6.32,0,0,1,.71-2.29.61.61,0,0,0-.57-.56c-.38,0-1,1-1.93,2.15-1.17,1.41-3.53,3.59-5,3.59a.71.71,0,0,1-.74-.81c0-2.78,4.3-7.26,8-7.26,1,0,1.23.71,1.23,1s-.11.5-.11.74a.28.28,0,0,0,.28.29c.25,0,.74-.5.74-1.2,0-.88-.7-1.8-2.46-1.8-2.89,0-6.43,2.65-8,5.43-.89,1-3.26,3.31-5.35,3.31a1.56,1.56,0,0,1-1.76-1.73,3.25,3.25,0,0,1,.31-1.62c4.44-4.09,11.14-11,11.14-13.6A1.42,1.42,0,0,0,119.76,61c-3,0-9.62,8.88-10.83,14.93-1.8,2-3.79,3.57-5.41,3.57a.84.84,0,0,1-1-.92c0-2,3.06-4.23,3.06-5.74,0-.35-.24-.56-.63-.74a7.83,7.83,0,0,1-2-1.41c0-.53,1.52-1.8,1.52-2.33a.93.93,0,0,0-.78-.73c-.88,0-1.48,2.25-1.9,3.1a35,35,0,0,1-3.64,5l0,0s-3.25,4-7.47,4a2,2,0,0,1-2.22-2,1.94,1.94,0,0,1,.07-.63c2.92-.74,7.64-2.68,7.64-4.79a1.62,1.62,0,0,0-1.83-1.52c-2.46,0-6.29,2.92-7,5.91a5.23,5.23,0,0,1-3.51,1.49c-.88,0-1.45-.39-1.59-.92,1.94-1.86,3.56-4.36,3.56-6.58a1.87,1.87,0,0,0-1.12-1.87.24.24,0,0,0-.25.24,7.29,7.29,0,0,1,.17,1.31c0,2-1.3,4.09-2.85,5.74l-1.06,1.06c-1.37,1.23-1.73,2-2.4,2a1,1,0,0,1-1-.72,35.6,35.6,0,0,1-1.16-4.85c1.45-1,2.34-2.21,2.4-3.17,0-.35,0-1.52-1.81-1.72a1.35,1.35,0,0,0-1.28.48c-.59.73-.61,2.28-.38,3.94a13,13,0,0,1-7.13,1.9c-1.82,0-9.08,0-9.15,0-9.92-.07-38,0-38.27,0h0A11.71,11.71,0,0,1,8.8,63.38V20.66A11.73,11.73,0,0,1,20.51,9H197.84a11.73,11.73,0,0,1,11.71,11.71ZM197.84,7.82H20.51A12.7,12.7,0,0,0,7.83,20.51V63.23A12.7,12.7,0,0,0,20.49,75.9h0c.29,0,28.35-.06,38.27,0,.08,0,7.32,0,9.13,0a14.6,14.6,0,0,0,7.32-1.84,35.7,35.7,0,0,0,1,4.37c.27.89.88,1.73,1.8,1.73s1.59-.81,3.11-2.08a3.51,3.51,0,0,0,2.46.84,6,6,0,0,0,3.58-1.32,3.14,3.14,0,0,0,3.44,3c4,0,8-4.39,8-4.47h0c1.3-1.48,2.78-3.38,3.31-4.12.21-.28.32-.39.46-.39a4,4,0,0,1,1.38.81c.24.18.42.32.42.5,0,1.23-2.86,3.34-2.86,5.53a1.76,1.76,0,0,0,1.91,1.76c1.6,0,3.65-1.44,5.44-3.2,0,.16,0,.33,0,.49a2.55,2.55,0,0,0,2.68,2.74c1.58,0,3.47-1.37,4.8-2.55a4,4,0,0,0-.15,1,1.71,1.71,0,0,0,1.84,1.84c1.79,0,4.4-2.4,5.77-4A2.53,2.53,0,0,0,126,79.35a5.67,5.67,0,0,0,3.4-1.73,3.05,3.05,0,0,0-.06.6,1.86,1.86,0,0,0,1.91,2c1.79,0,4.05-1.83,5.88-3.77-.42,1.2-.95,2.68-1.62,4.19-6.52,3.28-14.2,5.74-14.2,10.61a3.2,3.2,0,0,0,3.49,3.24c5,0,9.09-7.22,11.59-13.25a72,72,0,0,0,7.07-4.45c1.66-1,3.21-.83,5.36-.89h49a12.72,12.72,0,0,0,12.69-12.7V20.51A12.7,12.7,0,0,0,197.84,7.82Zm-73,85.69a2.15,2.15,0,0,1-2.29-2.25c0-3.88,6.31-6.24,12.48-9.3C132.52,87.45,128.78,93.51,124.8,93.51ZM76.2,69.71a.34.34,0,0,1,.31-.14h.09c1,.12,1,.55,1,.69A3.7,3.7,0,0,1,76,72.38,4.27,4.27,0,0,1,76.2,69.71Zm34.12,4.78c1.87-5.68,7.4-12.76,9.48-12.76a.42.42,0,0,1,.46.42C120.26,64.58,114.16,71,110.32,74.49Zm-21.5,1.44c1-2.18,3.7-4.3,5.64-4.3.53,0,.64.32.64.42C95.1,73.53,91.5,75.22,88.82,75.93Z"/><path class="cls-3" d="M179.88,42.41l-13.34.08a10.45,10.45,0,0,1-5.86-1.44.61.61,0,0,0-1,.51v5.68a.66.66,0,0,0,.14.39.62.62,0,0,0,.82.11,9.41,9.41,0,0,1,5.75-1.48l3.4,0v6.94l2.07-1.06V46.23h1.59v9.31h6.36a6.68,6.68,0,0,0,6.48-6.68A6.46,6.46,0,0,0,179.88,42.41Zm0,9.14-4.32,0V46.21l4.31,0a2.69,2.69,0,0,1,0,5.37Z"/></svg>