<svg id="Ebene_1" data-name="Ebene 1" xmlns="http://www.w3.org/2000/svg" viewBox="0 0 253 126"><defs><style>.cls-1{fill:#d5d4d4;}.cls-2{fill:#2e5346;}</style></defs><title>nentwich_name</title><rect class="cls-1" x="14.15" y="37.35" width="187.55" height="16.64"/><rect class="cls-1" x="14.15" y="98.69" width="227.43" height="16.64"/><path class="cls-2" d="M24.94,9h9.35l1.65,8,2-8h9.18L56.53,49h-10l-8-34.21-5.7,21.95h-2l-5.3-21.95L16.9,49H14.79Z"/><path class="cls-2" d="M60.4,43.82c0-4.22,8.16-9.47,14.66-9.47V27.91a4.51,4.51,0,0,0-4.39-4.56c-2.74,0-5.65,2.73-6.45,6l-2-4.28c2-1.88,6.5-3.53,9.75-3.53,6,0,11.52,2.39,11.52,5.64V49H75.06V47c-3.48,1.77-6.16,2.57-8.5,2.57C62.68,49.52,60.4,47.35,60.4,43.82Zm14.66,1.59V35.72c-4.56,1-6.5,2.74-6.5,5.76,0,2.85,1.77,4.73,4,4.73A4.49,4.49,0,0,0,75.06,45.41Z"/><path class="cls-2" d="M88.51,23.86l4.28-2.28h4.28v3.08c3.13-2.34,4.33-3.08,6.16-3.08,2.22,0,4.33,1,6.72,2.85L104.65,35c-1.37-5.3-3.93-8-7.58-8V49H88.51Z"/><path class="cls-2" d="M113.26,9.09h8.55V35.72l11.69-19h2.34l-6.16,10,9,22.24h-7.42L125.29,34l-3.48,5.25V49h-8.55Z"/><path class="cls-2" d="M142.34,41.82V22.72l4.28-1.14h4.27v21c0,1.94.57,3.31,3.94,3.31.8,0,3.48-.52,3.48-1.6V21.58h8.55V49h-8.55V46.33c-3.71,1.88-5.19,2.62-7.53,2.62C145.88,49,142.34,45.87,142.34,41.82Z"/><path class="cls-2" d="M169.88,45l1.88-1.54c1.14,2.62,3.2,4.1,5.65,4.1,3.48,0,6.73-2.85,6.73-5.47,0-3.14-1.66-5.53-6.1-7-5-1.66-6.56-3.37-6.56-7.13,0-3.54,4.05-6.33,9.12-6.33a10.07,10.07,0,0,1,7.93,3.59l-1.83,1A6.61,6.61,0,0,0,181.12,23c-1.2,0-1.94,1.37-1.94,2.68,0,1.59,1.42,3.08,5.53,4.5,3.59,1.26,6.38,4.51,6.38,7.53,0,6.9-5.58,11.86-13.28,11.86C174.61,49.52,170.51,47.12,169.88,45Z"/><path class="cls-2" d="M17.64,70.44h9.69v4a3.78,3.78,0,0,0,1.09,2.68L43.87,91.88V70.44h2v39.92h-2v-5.14l-24.24-23v28.17h-2Z"/><path class="cls-2" d="M51.11,97.64c0-8,4.56-14.66,11.06-14.66,5,0,9.18,4.45,9.18,11H59.72v6.22c0,5.93,1.94,8.95,5,8.95,1.65,0,2.73-.91,5.19-4.5l2,1c-1.82,3.54-4.67,5.31-9.75,5.31C55.78,110.93,51.11,105.79,51.11,97.64Zm13.34-5.08c0-6.1-.34-8.15-2.28-8.15s-2.45,2-2.45,8.15Z"/><path class="cls-2" d="M75.74,84.12,80,83h4.27v2.63C88,83.73,89.48,83,91.82,83c4.91,0,8.44,3.08,8.44,7.13v20.25H91.71v-21c0-1.93-.57-3.3-3.94-3.3-.8,0-3.48.51-3.48,1.59v22.76H75.74Z"/><path class="cls-2" d="M107.56,104.71V88.4h-4v-2h4V75.57l8.55-1.14v12h4v2h-4V104c0,2.51.06,4.56,2.68,4.56,2.34,0,2.8-1.6,3.59-4.91l2,4.28c-2,1.88-5.36,2.4-8.33,2.4C109.73,110.36,107.56,108,107.56,104.71Z"/><path class="cls-2" d="M128.09,83h8.78l5.47,23.5,1.54-6.1L139.78,83h8.43l4.57,23.5L160,83h2l-6,27.38h-9.81l-1.37-5.82-1.48,5.82h-8.84Z"/><path class="cls-2" d="M162.81,84.12,171.36,83v27.38h-8.55Zm.46-9.12c0-2.51,1.25-4.56,3.76-4.56S171,72.49,171,75s-1.42,4.56-3.93,4.56S163.27,77.51,163.27,75Z"/><path class="cls-2" d="M175.58,97.18c0-7.81,5.88-14.2,13.06-14.2a13,13,0,0,1,9.92,4.68l-5.7,3.08c-1-4.28-1.88-5.76-3.48-5.76-3,0-5.25,4.85-5.25,11.46,0,6.22,3,12.49,6,12.49,1.49,0,3.31-1.6,5.25-4.51l3.19,1.43-1.54,1.6c-2.73,2.85-4.05,3.48-7.24,3.48C180.71,110.93,175.58,105.91,175.58,97.18Z"/><path class="cls-2" d="M201.87,71.58l8.55-1.71V85.61C214.13,83.73,215.61,83,218,83c4.9,0,8.44,3.08,8.44,7.13v20.25h-8.56v-21c0-1.93-.57-3.3-3.93-3.3-.8,0-3.48.51-3.48,1.59v22.76h-8.55Z"/></svg>