<svg id="Ebene_1" data-name="Ebene 1" xmlns="http://www.w3.org/2000/svg" viewBox="0 0 112.35 55.44"><defs><style>.cls-1,.cls-2{fill:#2e5346;}.cls-1{opacity:0.2;}</style></defs><title>nentwichVerlag_logos</title><rect class="cls-1" x="11.08" y="17.07" width="92.65" height="7.19"/><rect class="cls-1" x="11.08" y="41.04" width="50.25" height="7.19"/><path class="cls-2" d="M12.66,8.22l3.13-.62v5.74a5.69,5.69,0,0,1,2.74-1A2.79,2.79,0,0,1,21.61,15v7.39H18.49V14.69c0-.7-.21-1.2-1.43-1.2-.3,0-1.27.18-1.27.58v8.3H12.66Z"/><path class="cls-2" d="M23.19,17.73c0-2.93,1.67-5.35,4-5.35,1.83,0,3.35,1.63,3.35,4H26.33v2.27c0,2.16.71,3.27,1.84,3.27.6,0,1-.34,1.89-1.65l.73.38a3.52,3.52,0,0,1-3.56,1.93C24.9,22.58,23.19,20.71,23.19,17.73Zm4.87-1.85c0-2.23-.12-3-.83-3s-.9.75-.9,3Z"/><path class="cls-2" d="M32.18,13.22l1.56-.84H35.3v1.13c1.15-.86,1.58-1.13,2.25-1.13a4.12,4.12,0,0,1,2.45,1l-1.93,3.85c-.5-1.93-1.44-2.91-2.77-2.91v8H32.18Z"/><path class="cls-2" d="M46.12,13.22H42.6l-.54.29v-.92h7.31l-5.29,9.16H47.6l.54-.27v.89H40.83Z"/><path class="cls-2" d="M50.72,8l3.12-.21V22.37H50.72Z"/><path class="cls-2" d="M55.65,12.8l3.12-.42v10H55.65Zm.17-3.33c0-.92.45-1.67,1.37-1.67a1.49,1.49,0,0,1,1.43,1.67,1.48,1.48,0,0,1-1.43,1.66C56.27,11.13,55.82,10.39,55.82,9.47Z"/><path class="cls-2" d="M60.31,17.57a5,5,0,0,1,4.77-5.19,4.77,4.77,0,0,1,3.62,1.71l-2.08,1.12c-.38-1.56-.69-2.1-1.27-2.1-1.09,0-1.92,1.77-1.92,4.19,0,2.26,1.1,4.55,2.19,4.55.54,0,1.2-.58,1.91-1.64l1.17.52-.57.58a3,3,0,0,1-2.64,1.27C62.18,22.58,60.31,20.75,60.31,17.57Z"/><path class="cls-2" d="M69.9,8.22,73,7.6v5.74a5.72,5.72,0,0,1,2.75-1A2.79,2.79,0,0,1,78.85,15v7.39H75.73V14.69c0-.7-.21-1.2-1.44-1.2-.29,0-1.27.18-1.27.58v8.3H69.9Z"/><path class="cls-2" d="M80.43,17.73c0-2.93,1.66-5.35,4-5.35,1.83,0,3.35,1.63,3.35,4H83.57v2.27c0,2.16.71,3.27,1.83,3.27.61,0,1-.34,1.9-1.65l.72.38a3.5,3.5,0,0,1-3.55,1.93C82.13,22.58,80.43,20.71,80.43,17.73Zm4.87-1.85c0-2.23-.13-3-.83-3s-.9.75-.9,3Z"/><path class="cls-2" d="M89.42,12.8,91,12.38h1.56v1a5.69,5.69,0,0,1,2.75-1A2.79,2.79,0,0,1,98.37,15v7.39H95.24V14.69c0-.7-.2-1.2-1.43-1.2-.29,0-1.27.18-1.27.58v8.3H89.42Z"/><path class="cls-2" d="M12.66,40.78c0-2.89,1.67-5,4-5a4.08,4.08,0,0,1,2,.57V31.43L21.82,31V45.79H18.7v-.66a4.36,4.36,0,0,1-2.46.87C14.08,46,12.66,43.94,12.66,40.78Zm6,3.62V37.09a2.27,2.27,0,0,0-1.29-.58c-1,0-1.62,1.46-1.62,3.94,0,2.64.66,4.47,1.7,4.47A2,2,0,0,0,18.7,44.4Z"/><path class="cls-2" d="M23.21,43.92c0-1.54,3-3.45,5.35-3.45V38.11A1.64,1.64,0,0,0,27,36.45a2.78,2.78,0,0,0-2.35,2.21l-.73-1.57a6.14,6.14,0,0,1,3.56-1.29c2.2,0,4.2.88,4.2,2.06v7.93H28.56v-.72a7.06,7.06,0,0,1-3.1.93A2,2,0,0,1,23.21,43.92Zm5.35.58V41c-1.66.37-2.37,1-2.37,2.1a1.55,1.55,0,0,0,1.46,1.73A1.61,1.61,0,0,0,28.56,44.5Z"/><path class="cls-2" d="M33.47,36.22,35,35.8h1.56v1a5.72,5.72,0,0,1,2.75-1,2.8,2.8,0,0,1,3.08,2.61v7.38H39.3V38.11c0-.7-.21-1.2-1.44-1.2-.29,0-1.27.18-1.27.58v8.3H33.47Z"/><path class="cls-2" d="M43.77,31.25h3.12V41L51.16,34H52l-2.25,3.65L53,45.79h-2.7l-2.17-5.45-1.27,1.92v3.53H43.77Z"/><path class="cls-2" d="M54.38,44.13c0-.92.46-1.67,1.37-1.67a1.68,1.68,0,0,1,0,3.33C54.84,45.79,54.38,45.05,54.38,44.13Zm.48-3L54.44,31h2.71l-.42,10.3Z"/></svg>