<svg id="Ebene_1" data-name="Ebene 1" xmlns="http://www.w3.org/2000/svg" viewBox="0 0 172.67 34.13"><defs><style>.cls-1,.cls-2{fill:#2e5346;}.cls-1{opacity:0.2;}</style></defs><title>nentwichVerlag_logos</title><rect class="cls-1" x="11.08" y="17.48" width="150.39" height="7.62"/><path class="cls-2" d="M12.66,13.21l1.56-.41h1.57v1c1.6-.82,2-1,2.87-1,1.39,0,2.64.39,2.95,1,1.61-.82,2-1,2.69-1,1.83,0,3.14,1.1,3.14,2.6v7.39H24.32V15.11c0-.87-.4-1.21-1.44-1.21-.58,0-1.27.31-1.27.58v8.31H18.49V15.11c0-.87-.39-1.21-1.43-1.21-.59,0-1.27.31-1.27.58v8.31H12.66Z"/><path class="cls-2" d="M28.81,20.92c0-1.54,3-3.46,5.35-3.46V15.11a1.65,1.65,0,0,0-1.6-1.67,2.8,2.8,0,0,0-2.36,2.21l-.72-1.56A6,6,0,0,1,33,12.8c2.21,0,4.21.87,4.21,2.06v7.93H34.16v-.73a7,7,0,0,1-3.1.94A2,2,0,0,1,28.81,20.92Zm5.35.58V18c-1.67.37-2.37,1-2.37,2.1a1.55,1.55,0,0,0,1.45,1.73A1.63,1.63,0,0,0,34.16,21.5Z"/><path class="cls-2" d="M39.07,13.63l1.56-.83h1.56v1.12c1.14-.85,1.58-1.12,2.25-1.12a4.06,4.06,0,0,1,2.45,1L45,17.69c-.5-1.94-1.44-2.91-2.77-2.91v8H39.07Z"/><path class="cls-2" d="M48.1,8.24h3.12V18L55.49,11h.85l-2.25,3.64,3.27,8.12H54.65l-2.16-5.45-1.27,1.91v3.54H48.1Z"/><path class="cls-2" d="M58.71,20.19v-7l1.56-.41h1.56v7.68c0,.71.21,1.21,1.44,1.21.29,0,1.27-.19,1.27-.59V12.8h3.12v10H64.54v-1a5.75,5.75,0,0,1-2.75,1A2.79,2.79,0,0,1,58.71,20.19Z"/><path class="cls-2" d="M68.76,21.33l.68-.56a2.25,2.25,0,0,0,2.06,1.5,2.44,2.44,0,0,0,2.46-2c0-1.14-.6-2-2.23-2.56-1.81-.6-2.39-1.23-2.39-2.6s1.48-2.31,3.33-2.31a3.65,3.65,0,0,1,2.89,1.31l-.66.35a2.44,2.44,0,0,0-2-1.16c-.44,0-.71.5-.71,1s.52,1.12,2,1.64a3.31,3.31,0,0,1,2.33,2.75c0,2.52-2,4.33-4.85,4.33A3.41,3.41,0,0,1,68.76,21.33Z"/><path class="cls-2" d="M83.05,13.21l1.56-.41h1.56v1a5.75,5.75,0,0,1,2.75-1c1.79,0,3.08,1.12,3.08,2.6v7.39H88.88V15.11c0-.71-.21-1.21-1.44-1.21-.29,0-1.27.19-1.27.58v8.31H83.05Z"/><path class="cls-2" d="M93.58,18.15c0-2.94,1.66-5.35,4-5.35,1.83,0,3.35,1.62,3.35,4H96.72v2.27c0,2.17.71,3.27,1.83,3.27.61,0,1-.33,1.9-1.64l.72.37A3.51,3.51,0,0,1,97.62,23C95.29,23,93.58,21.12,93.58,18.15Zm4.87-1.86c0-2.22-.13-3-.83-3s-.9.75-.9,3Z"/><path class="cls-2" d="M102.57,13.21l1.56-.41h1.56v1a5.69,5.69,0,0,1,2.75-1c1.79,0,3.08,1.12,3.08,2.6v7.39h-3.13V15.11c0-.71-.2-1.21-1.43-1.21-.29,0-1.27.19-1.27.58v8.31h-3.12Z"/><path class="cls-2" d="M114.18,20.73v-6h-1.46v-.73h1.46v-4l3.12-.41v4.37h1.46v.73H117.3v5.7c0,.91,0,1.66,1,1.66s1-.58,1.31-1.79l.73,1.56a4.53,4.53,0,0,1-3,.88C115,22.79,114.18,21.91,114.18,20.73Z"/><path class="cls-2" d="M121.67,12.8h3.2l2,8.57.56-2.22-1.5-6.35H129l1.67,8.57,2.62-8.57h.75l-2.19,10h-3.57l-.5-2.12-.55,2.12H124Z"/><path class="cls-2" d="M134.34,13.21l3.12-.41v10h-3.12Zm.16-3.33c0-.91.46-1.66,1.38-1.66a1.49,1.49,0,0,1,1.43,1.66,1.49,1.49,0,0,1-1.43,1.67C135,11.55,134.5,10.8,134.5,9.88Z"/><path class="cls-2" d="M139,18a5,5,0,0,1,4.76-5.18,4.74,4.74,0,0,1,3.63,1.71l-2.09,1.12c-.37-1.56-.68-2.1-1.26-2.1-1.09,0-1.92,1.77-1.92,4.18s1.1,4.56,2.19,4.56c.54,0,1.2-.58,1.91-1.65l1.17.52-.57.59A3,3,0,0,1,144.18,23C140.87,23,139,21.17,139,18Z"/><path class="cls-2" d="M148.59,8.64,151.71,8v5.75a5.72,5.72,0,0,1,2.75-1c1.79,0,3.08,1.12,3.08,2.6v7.39h-3.12V15.11c0-.71-.21-1.21-1.44-1.21-.29,0-1.27.19-1.27.58v8.31h-3.12Z"/></svg>