<svg id="Ebene_1" data-name="Ebene 1" xmlns="http://www.w3.org/2000/svg" viewBox="0 0 216 101"><defs><style>.cls-1{fill:#fff;}.cls-2,.cls-3{fill:none;}.cls-2{stroke:#fff;stroke-miterlimit:10;stroke-width:0.73px;}.cls-4{fill:#abbab5;}</style></defs><title>nentwich_logo_white_wip</title><path class="cls-1" d="M76.64,77.75a14.76,14.76,0,0,1-5.84,1.38c-4,.11-6.13-.76-7.1-1.88-1.91,1.91-4.84,3.61-5.57,3.29-1-.5-.39-1.68,1-3.58,1.15-1.53,1.29-1.73,1.06-1.73a5.07,5.07,0,0,0-1.79.41l-.29-.71a6,6,0,0,1,2.08-.47c1.41,0,.91,1.15-.47,2.94s-1.53,2.34-1.29,2.43c.47.24,3.2-1.41,4.84-3.11-1.29-2.29,1.2-5,1.94-2.76.26.83-.27,1.85-1.18,2.85.91.94,2.85,1.67,6.69,1.56A13.53,13.53,0,0,0,76.32,77ZM63.7,76.28c.65-.76,1-1.49.82-2.08C64.23,73.26,62.91,74.81,63.7,76.28Z"/><path class="cls-1" d="M91.45,77.75c-3.49,1.76-9,4-12.32,3.25a3.41,3.41,0,0,1-3-3.54V77.4a3.41,3.41,0,0,1,3.66-3,1.44,1.44,0,0,1,1.56,1.38c0,2.15-2.7,3.44-4.2,3a2.89,2.89,0,0,0,2.15,1.49c3.14.65,8.36-1.44,11.85-3.2Zm-14.58-.29c.09,1.34,3.7.38,3.7-1.71,0-.35-.33-.61-.8-.61A2.66,2.66,0,0,0,76.87,77.46Z"/><path class="cls-1" d="M110.55,77.75c-4.84,2.35-10.8,1.47-10.8-1.61A2.71,2.71,0,0,1,100,75a11.83,11.83,0,0,0-3.61,3.46A15.14,15.14,0,0,1,95.32,80l-.15.26h0l-.64-.41s.15-.23.35-.5.38-.58.65-.94c.85-1.23,1.9-2.93,1.9-3.69v0A9.76,9.76,0,0,0,95,75.87a35.85,35.85,0,0,1-3.55,1.88l-.3-.71a33.58,33.58,0,0,0,3.47-1.84c1.76-1,2.37-1.3,2.84-1.3a.72.72,0,0,1,.74.8,2.39,2.39,0,0,1-.18.82A5,5,0,0,1,101,74c1,0,1.68.44,1.68,1.29h-.77c0-.32-.23-.49-.7-.52a1.51,1.51,0,0,0-.68,1.41c0,2.37,5.46,3,9.69.9Z"/><path class="cls-1" d="M112.71,73.17a13.2,13.2,0,0,0-2.2,6c0,1.29.85,1.93,2.59,1.93,3.75,0,12.38-4,12.38-4l.29.71S117,81.86,113.1,81.86c-2.15,0-3.35-.94-3.35-2.7,0-2.23,1.5-5.55,4-8.78,3.76-4.9,9.8-9.62,15.93-9.62,1.26,0,2,.5,2,1.44,0,3.7-11.56,12.67-16.34,12.67A2.51,2.51,0,0,1,112.71,73.17Zm.59-.91a1.81,1.81,0,0,0,2,1.85c4.81,0,15.58-8.92,15.58-11.91,0-.44-.36-.68-1.24-.68-5.87,0-11.62,4.52-15.31,9.33C114,71.32,113.62,71.79,113.3,72.26Z"/><path class="cls-1" d="M141.76,77.75c-3.35,1.41-8,3.17-10,3.17-1.29,0-2.05-.59-2.05-1.62a4.91,4.91,0,0,1,.47-1.84c-1.38,1.29-3.26,2.78-4.43,2.78-.59,0-.94-.64-.94-1.38a4.26,4.26,0,0,1,3.72-3.81,2,2,0,0,1,1.88,1.14l.94-.94.35.36.24.14a9.33,9.33,0,0,0-1.47,3.55c0,.59.38.85,1.29.85,1.47,0,5.05-1.14,9.71-3.11Zm-16,1.73c1,0,2.73-1.47,4-2.7a1.23,1.23,0,0,0-1.27-1,3.59,3.59,0,0,0-3,3C125.56,79.19,125.68,79.48,125.74,79.48Z"/><path class="cls-1" d="M141.84,83.79c-5,7.16-10.5,14.44-13.55,12.76-2.29-1.23-1.41-6.92,8.21-11.2l4.81-2.17c.53-.74,1-1.44,1.53-2.18s.91-1.31,1.38-2a4.74,4.74,0,0,1-2.53,1.2c-.58,0-.93-.64-.93-1.38a4.26,4.26,0,0,1,3.72-3.81,2.13,2.13,0,0,1,1.76,1l.3-.32,0,0,.27.27.29.23c-1.11,1.56-2.37,3.35-3.66,5.2-.27.38-.53.76-.8,1.11,4.55-2,9.19-4.17,12.12-5.52l.29.71C151.91,79.22,146.71,81.59,141.84,83.79Zm-1.38.62c-1.26.58-2.52,1.11-3.66,1.64-9.22,4.11-10,8.86-8.16,9.86C131,97.2,135.77,91.07,140.46,84.41Zm1.23-4.93c1.12,0,2.85-1.64,4-2.82a1.35,1.35,0,0,0-1.2-.85,3.58,3.58,0,0,0-3,3A.92.92,0,0,0,141.69,79.48Z"/><path class="cls-2" d="M154.88,77.41c3-1.41,8.12-1.11,11.08-1.09,11.72.06,31.47,0,31.47,0a12.54,12.54,0,0,0,12.48-12.49V17.1A12.52,12.52,0,0,0,197.43,4.62H16.12A12.52,12.52,0,0,0,3.64,17.1V63.85A12.47,12.47,0,0,0,16.12,76.28s11.51,0,21.77,0c2.68,0,17.3.11,20.4-1.07"/><path class="cls-1" d="M18.29,31.19l3.76-1h3.77V32.5c3.26-1.66,4.56-2.31,6.62-2.31,4.32,0,7.43,2.71,7.43,6.27V54.28H32.34V35.76c0-1.71-.5-2.91-3.46-2.91-.7,0-3.06.45-3.06,1.4v20H18.29Z"/><path class="cls-1" d="M43.69,43.09c0-7.08,4-12.9,9.74-12.9,4.41,0,8.08,3.91,8.08,9.64H51.27V45.3c0,5.22,1.71,7.88,4.42,7.88,1.45,0,2.41-.8,4.56-4l1.76.91c-1.61,3.11-4.11,4.67-8.58,4.67C47.8,54.79,43.69,50.27,43.69,43.09Zm11.75-4.47c0-5.37-.31-7.18-2-7.18s-2.16,1.81-2.16,7.18Z"/><path class="cls-1" d="M65.38,31.19l3.76-1h3.77V32.5c3.26-1.66,4.56-2.31,6.62-2.31,4.32,0,7.43,2.71,7.43,6.27V54.28H79.43V35.76c0-1.71-.5-2.91-3.46-2.91-.7,0-3.06.45-3.06,1.4v20H65.38Z"/><path class="cls-1" d="M93.39,49.31V35H89.88V33.2h3.51V23.66l7.53-1V33.2h3.51V35h-3.51V48.71c0,2.21,0,4,2.36,4,2.06,0,2.46-1.41,3.16-4.32l1.76,3.76c-1.76,1.66-4.72,2.11-7.33,2.11C95.3,54.28,93.39,52.17,93.39,49.31Z"/><path class="cls-1" d="M109.05,30.19h7.73l4.82,20.68L123,45.5l-3.62-15.31h7.43l4,20.68,6.33-20.68h1.8l-5.27,24.09H125l-1.21-5.12-1.3,5.12h-7.78Z"/><path class="cls-1" d="M139.63,31.19l7.53-1V54.28h-7.53Zm.4-8c0-2.21,1.1-4,3.31-4s3.47,1.81,3.47,4-1.26,4-3.47,4S140,25.37,140,23.16Z"/><path class="cls-1" d="M174.87,20.15l7.53-1.51V32.5c3.26-1.66,4.57-2.31,6.63-2.31,4.31,0,7.43,2.71,7.43,6.27V54.28h-7.53V35.76c0-1.71-.51-2.91-3.47-2.91-.7,0-3.06.45-3.06,1.4v20h-7.53Z"/><polygon class="cls-3" points="171.11 44.97 169.51 44.98 169.51 50.33 171.11 50.33 171.11 44.97"/><path class="cls-3" d="M180.18,47.62a2.68,2.68,0,0,0-2.69-2.68l-4.31,0v5.37l4.32,0A2.7,2.7,0,0,0,180.18,47.62Z"/><path class="cls-1" d="M171.46,38.3c-2.53-4.17-3.8-3.09-9.29-3.08h-1c-4.41,0-6.52,2.8-6.51,7.2s.67,7.44,5.07,7.43l11.39-.08v4.5H160.63c-6.49,0-10.55-5.35-10.56-11.84s4.59-11.77,11.08-11.79h1c5.67-.33,6.69.27,9.17-3.54Z"/><path class="cls-4" d="M177.48,41.17l-13.35.07a10.48,10.48,0,0,1-5.85-1.43.6.6,0,0,0-.95.5V46a.62.62,0,0,0,.14.39.6.6,0,0,0,.82.11A9.49,9.49,0,0,1,164.05,45l3.4,0v6.95l2.06-1.06V45h1.6v9.31h6.36A6.68,6.68,0,0,0,184,47.61,6.46,6.46,0,0,0,177.48,41.17Zm0,9.14-4.32,0V45l4.31,0a2.69,2.69,0,0,1,0,5.37Z"/></svg>